# xmcd
# 
# Track frame offsets:
#     150
#     24713
#     58809
#     78881
#     96630
#     168889
#     207985
#     231879
#     259125
#     283770
# 
# Disc length: 4650
# 
# Revision: 1
# Processed by: cddbd v1.5.2PL0 Copyright (c) Steve Scherf et al.
# Submitted via: fre:ac v1.0.31
# 
DISCID=8d12280a
DTITLE=Donny Hathaway - Never My Love The Anthology Disc 3
DYEAR=2013
DGENRE=R&B
TTITLE0=WHAT'S GOING ON
TTITLE1=SACK FULL OF DREAMS
TTITLE2=LITTLE GHETTO BOY
TTITLE3=YOU'VE GOT A FRIEND
TTITLE4=VOICES INSIDE (EVERYTHING IS EVERYTHING)
TTITLE5=HE AIN'T HEAVY, HE'S MY BROTHER
TTITLE6=JEALOUS GUY
TTITLE7=I LOVE YOU MORE THAN YOU'LL EVER KNOW
TTITLE8=HEY GIRL
TTITLE9=THE GHETTO
EXTD=
EXTT0=
EXTT1=
EXTT2=
EXTT3=
EXTT4=
EXTT5=
EXTT6=
EXTT7=
EXTT8=
EXTT9=
PLAYORDER=
